999
dxfrw 0.5.13
0
SECTION
2
HEADER
9
$ACADVER
1
AC1021
9
$HANDSEED
5
20000
9
$DWGCODEPAGE
3
ANSI_1252
9
$INSBASE
10
0
20
0
30
0
9
$EXTMIN
10
-65.0502133928
20
-63.9318536326
30
0
9
$EXTMAX
10
65.0502138711
20
63.9318532862
30
0
9
$LIMMIN
10
0
20
0
9
$LIMMAX
10
420
20
297
9
$ORTHOMODE
70
0
9
$LTSCALE
40
1
9
$TEXTSTYLE
7
STANDARD
9
$CLAYER
8
0
9
$DIMASZ
40
2.5
9
$DIMLFAC
40
1
9
$DIMSCALE
40
1
9
$DIMEXO
40
0.625
9
$DIMEXE
40
1.25
9
$DIMTXT
40
2.5
9
$DIMTSZ
40
0
9
$DIMAUNIT
70
0
9
$DIMADEC
70
0
9
$DIMLUNIT
70
2
9
$DIMSTYLE
2
STANDARD
9
$DIMGAP
40
0.625
9
$DIMTIH
70
0
9
$LUNITS
70
2
9
$LUPREC
70
4
9
$AUNITS
70
0
9
$AUPREC
70
2
9
$SPLINESEGS
70
8
9
$GRIDMODE
70
1
9
$SNAPSTYLE
70
0
9
$PINSBASE
10
0
20
0
30
0
9
$PLIMMIN
10
0
20
0
9
$PLIMMAX
10
210
20
297
9
$INSUNITS
70
4
9
$PSVPSCALE
40
0
0
ENDSEC
0
SECTION
2
CLASSES
0
ENDSEC
0
SECTION
2
TABLES
0
TABLE
2
VPORT
5
8
330
0
100
AcDbSymbolTable
70
1
0
VPORT
5
31
330
2
100
AcDbSymbolTableRecord
100
AcDbViewportTableRecord
2
*ACTIVE
70
0
10
0
20
0
11
1
21
1
12
105.811672989
22
40.8579727384
13
0
23
0
14
10
24
10
15
10
25
10
16
0
26
0
36
1
17
0
27
0
37
0
40
162.733464069
41
2.25178826896
42
50
43
0
44
0
50
0
51
0
71
0
72
100
73
1
74
3
75
0
76
1
77
0
78
0
281
0
65
1
110
0
120
0
130
0
111
1
121
0
131
0
112
0
122
1
132
0
79
0
146
0
348
10020
60
7
61
5
292
1
282
1
141
0
142
0
63
250
421
3358443
0
ENDTAB
0
TABLE
2
LTYPE
5
5
330
0
100
AcDbSymbolTable
70
4
0
LTYPE
5
14
330
5
100
AcDbSymbolTableRecord
100
AcDbLinetypeTableRecord
2
ByBlock
70
0
3

72
65
73
0
40
0
0
LTYPE
5
15
330
5
100
AcDbSymbolTableRecord
100
AcDbLinetypeTableRecord
2
ByLayer
70
0
3

72
65
73
0
40
0
0
LTYPE
5
16
330
5
100
AcDbSymbolTableRecord
100
AcDbLinetypeTableRecord
2
Continuous
70
0
3
Solid line
72
65
73
0
40
0
0
LTYPE
5
32
330
5
100
AcDbSymbolTableRecord
100
AcDbLinetypeTableRecord
2
DOT
70
0
3
Dot . . . . . . . . . . . . . . . . . . . . . .
72
65
73
2
40
6.35
49
0
74
0
49
-6.35
74
0
0
LTYPE
5
33
330
5
100
AcDbSymbolTableRecord
100
AcDbLinetypeTableRecord
2
DOT2
70
0
3
Dot (.5x) .....................................
72
65
73
2
40
3.175
49
0
74
0
49
-3.175
74
0
0
LTYPE
5
34
330
5
100
AcDbSymbolTableRecord
100
AcDbLinetypeTableRecord
2
DOTX2
70
0
3
Dot (2x) .  .  .  .  .  .  .  .  .  .  .  .  .
72
65
73
2
40
12.7
49
0
74
0
49
-12.7
74
0
0
LTYPE
5
35
330
5
100
AcDbSymbolTableRecord
100
AcDbLinetypeTableRecord
2
DASHED
70
0
3
Dot . . . . . . . . . . . . . . . . . . . . . .
72
65
73
2
40
19.05
49
12.7
74
0
49
-6.35
74
0
0
LTYPE
5
36
330
5
100
AcDbSymbolTableRecord
100
AcDbLinetypeTableRecord
2
DASHED2
70
0
3
Dashed (.5x) _ _ _ _ _ _ _ _ _ _ _ _ _ _ _ _ _
72
65
73
2
40
9.525
49
6.35
74
0
49
-3.175
74
0
0
LTYPE
5
37
330
5
100
AcDbSymbolTableRecord
100
AcDbLinetypeTableRecord
2
DASHEDX2
70
0
3
Dashed (2x) ____  ____  ____  ____  ____  ___
72
65
73
2
40
38.1
49
25.4
74
0
49
-12.7
74
0
0
LTYPE
5
38
330
5
100
AcDbSymbolTableRecord
100
AcDbLinetypeTableRecord
2
DASHDOT
70
0
3
Dash dot __ . __ . __ . __ . __ . __ . __ . __
72
65
73
4
40
25.4
49
12.7
74
0
49
-6.35
74
0
49
0
74
0
49
-6.35
74
0
0
LTYPE
5
39
330
5
100
AcDbSymbolTableRecord
100
AcDbLinetypeTableRecord
2
DASHDOT2
70
0
3
Dash dot (.5x) _._._._._._._._._._._._._._._.
72
65
73
4
40
12.7
49
6.35
74
0
49
-3.175
74
0
49
0
74
0
49
-3.175
74
0
0
LTYPE
5
3A
330
5
100
AcDbSymbolTableRecord
100
AcDbLinetypeTableRecord
2
DASHDOTX2
70
0
3
Dash dot (2x) ____  .  ____  .  ____  .  ___
72
65
73
4
40
50.8
49
25.4
74
0
49
-12.7
74
0
49
0
74
0
49
-12.7
74
0
0
LTYPE
5
3B
330
5
100
AcDbSymbolTableRecord
100
AcDbLinetypeTableRecord
2
DIVIDE
70
0
3
Divide ____ . . ____ . . ____ . . ____ . . ____
72
65
73
6
40
31.75
49
12.7
74
0
49
-6.35
74
0
49
0
74
0
49
-6.35
74
0
49
0
74
0
49
-6.35
74
0
0
LTYPE
5
3C
330
5
100
AcDbSymbolTableRecord
100
AcDbLinetypeTableRecord
2
DIVIDE2
70
0
3
Divide (.5x) __..__..__..__..__..__..__..__.._
72
65
73
6
40
15.875
49
6.35
74
0
49
-3.175
74
0
49
0
74
0
49
-3.175
74
0
49
0
74
0
49
-3.175
74
0
0
LTYPE
5
3D
330
5
100
AcDbSymbolTableRecord
100
AcDbLinetypeTableRecord
2
DIVIDEX2
70
0
3
Divide (2x) ________  .  .  ________  .  .  _
72
65
73
6
40
63.5
49
25.4
74
0
49
-12.7
74
0
49
0
74
0
49
-12.7
74
0
49
0
74
0
49
-12.7
74
0
0
LTYPE
5
3E
330
5
100
AcDbSymbolTableRecord
100
AcDbLinetypeTableRecord
2
BORDER
70
0
3
Border __ __ . __ __ . __ __ . __ __ . __ __ .
72
65
73
6
40
44.45
49
12.7
74
0
49
-6.35
74
0
49
12.7
74
0
49
-6.35
74
0
49
0
74
0
49
-6.35
74
0
0
LTYPE
5
3F
330
5
100
AcDbSymbolTableRecord
100
AcDbLinetypeTableRecord
2
BORDER2
70
0
3
Border (.5x) __.__.__.__.__.__.__.__.__.__.__.
72
65
73
6
40
22.225
49
6.35
74
0
49
-3.175
74
0
49
6.35
74
0
49
-3.175
74
0
49
0
74
0
49
-3.175
74
0
0
LTYPE
5
40
330
5
100
AcDbSymbolTableRecord
100
AcDbLinetypeTableRecord
2
BORDERX2
70
0
3
Border (2x) ____  ____  .  ____  ____  .  ___
72
65
73
6
40
88.9
49
25.4
74
0
49
-12.7
74
0
49
25.4
74
0
49
-12.7
74
0
49
0
74
0
49
-12.7
74
0
0
LTYPE
5
41
330
5
100
AcDbSymbolTableRecord
100
AcDbLinetypeTableRecord
2
CENTER
70
0
3
Center ____ _ ____ _ ____ _ ____ _ ____ _ ____
72
65
73
4
40
50.8
49
31.75
74
0
49
-6.35
74
0
49
6.35
74
0
49
-6.35
74
0
0
LTYPE
5
42
330
5
100
AcDbSymbolTableRecord
100
AcDbLinetypeTableRecord
2
CENTER2
70
0
3
Center (.5x) ___ _ ___ _ ___ _ ___ _ ___ _ ___
72
65
73
4
40
28.575
49
19.05
74
0
49
-3.175
74
0
49
3.175
74
0
49
-3.175
74
0
0
LTYPE
5
43
330
5
100
AcDbSymbolTableRecord
100
AcDbLinetypeTableRecord
2
CENTERX2
70
0
3
Center (2x) ________  __  ________  __  _____
72
65
73
4
40
101.6
49
63.5
74
0
49
-12.7
74
0
49
12.7
74
0
49
-12.7
74
0
0
ENDTAB
0
TABLE
2
LAYER
5
2
330
0
100
AcDbSymbolTable
70
1
0
LAYER
5
10
330
2
100
AcDbSymbolTableRecord
100
AcDbLayerTableRecord
2
0
70
0
62
7
6
CONTINUOUS
370
0
390
F
0
ENDTAB
0
TABLE
2
STYLE
5
3
330
0
100
AcDbSymbolTable
70
3
0
STYLE
5
44
330
2
100
AcDbSymbolTableRecord
100
AcDbTextStyleTableRecord
2
Standard
70
0
40
0
41
1
50
0
71
0
42
1
3
txt
4

0
ENDTAB
0
TABLE
2
VIEW
5
6
330
0
100
AcDbSymbolTable
70
0
0
ENDTAB
0
TABLE
2
UCS
5
7
330
0
100
AcDbSymbolTable
70
0
0
ENDTAB
0
TABLE
2
APPID
5
9
330
0
100
AcDbSymbolTable
70
1
0
APPID
5
12
330
9
100
AcDbSymbolTableRecord
100
AcDbRegAppTableRecord
2
ACAD
70
0
0
APPID
5
45
330
9
100
AcDbSymbolTableRecord
100
AcDbRegAppTableRecord
2
LibreCad
70
0
0
ENDTAB
0
TABLE
2
DIMSTYLE
5
A
330
0
100
AcDbSymbolTable
70
1
100
AcDbDimStyleTable
71
1
0
DIMSTYLE
105
46
330
A
100
AcDbSymbolTableRecord
100
AcDbDimStyleTableRecord
2
Standard
70
0
40
1
41
2.5
42
0.625
43
0.38
44
1.25
45
0
46
0
47
0
48
0
140
2.5
141
0.09
142
0
143
25.4
144
1
145
0
146
1
147
0.625
148
0
71
0
72
0
73
0
74
1
75
0
76
0
77
0
78
0
79
0
170
0
171
2
172
0
173
0
174
0
175
0
176
0
177
0
178
0
179
0
271
4
272
4
273
2
274
2
275
0
276
0
277
2
278
46
279
0
280
0
281
0
282
0
283
1
284
0
285
0
286
0
288
0
289
3
340
Standard
341

371
-2
372
-2
0
ENDTAB
0
TABLE
2
BLOCK_RECORD
5
1
330
0
100
AcDbSymbolTable
70
2
0
BLOCK_RECORD
5
1F
330
1
100
AcDbSymbolTableRecord
100
AcDbBlockTableRecord
2
*Model_Space
70
0
280
1
281
0
0
BLOCK_RECORD
5
1E
330
1
100
AcDbSymbolTableRecord
100
AcDbBlockTableRecord
2
*Paper_Space
70
0
280
1
281
0
0
ENDTAB
0
ENDSEC
0
SECTION
2
BLOCKS
0
BLOCK
5
20
330
1F
100
AcDbEntity
8
0
100
AcDbBlockBegin
2
*Model_Space
70
0
10
0
20
0
30
0
3
*Model_Space
1

0
ENDBLK
5
21
330
1F
100
AcDbEntity
8
0
100
AcDbBlockEnd
0
BLOCK
5
1C
330
1B
100
AcDbEntity
8
0
100
AcDbBlockBegin
2
*Paper_Space
70
0
10
0
20
0
30
0
3
*Paper_Space
1

0
ENDBLK
5
1D
330
1F
100
AcDbEntity
8
0
100
AcDbBlockEnd
0
ENDSEC
0
SECTION
2
ENTITIES
0
ARC
5
47
100
AcDbEntity
8
0
6
ByLayer
62
256
370
-1
100
AcDbCircle
10
27.5
20
6.69872981078
40
2.5
100
AcDbArc
50
180
51
0
0
ARC
5
48
100
AcDbEntity
8
0
6
ByLayer
62
256
370
-1
100
AcDbCircle
10
27.5
20
-6.69872981078
40
2.5
100
AcDbArc
50
0
51
180
0
ARC
5
49
100
AcDbEntity
8
0
6
ByLayer
62
256
370
-1
100
AcDbCircle
10
32.5
20
6.69872981078
40
2.5
100
AcDbArc
50
0
51
180
0
ARC
5
4A
100
AcDbEntity
8
0
6
ByLayer
62
256
370
-1
100
AcDbCircle
10
32.5
20
-6.69872981078
40
2.5
100
AcDbArc
50
180
51
0
0
LINE
5
4B
100
AcDbEntity
8
0
6
ByLayer
62
256
370
-1
100
AcDbLine
10
35
20
6.69872981078
11
35
21
-6.69872981078
0
ARC
5
4C
100
AcDbEntity
8
0
6
ByLayer
62
256
370
-1
100
AcDbCircle
10
-27.5
20
6.69872981078
40
2.5
100
AcDbArc
50
180
51
0
0
ARC
5
4D
100
AcDbEntity
8
0
6
ByLayer
62
256
370
-1
100
AcDbCircle
10
-32.5
20
6.69872972026
40
2.5
100
AcDbArc
50
2.07446790713e-006
51
179.999997926
0
ARC
5
4E
100
AcDbEntity
8
0
6
ByLayer
62
256
370
-1
100
AcDbCircle
10
-27.5
20
-6.69872981078
40
2.5
100
AcDbArc
50
0
51
180
0
ARC
5
4F
100
AcDbEntity
8
0
6
ByLayer
62
256
370
-1
100
AcDbCircle
10
-32.5
20
-6.69872981078
40
2.5
100
AcDbArc
50
180
51
360
0
LINE
5
50
100
AcDbEntity
8
0
6
ByLayer
62
256
370
-1
100
AcDbLine
10
-35
20
6.69872981078
11
-35
21
-6.69872981078
0
ARC
5
51
100
AcDbEntity
8
0
6
ByLayer
62
256
370
-1
100
AcDbCircle
10
-8.34643465453e-012
20
54.5447753553
40
22
100
AcDbArc
50
234.100113754
51
305.899886246
0
LINE
5
52
100
AcDbEntity
8
0
6
ByLayer
62
256
370
-1
100
AcDbLine
10
-25
20
7.08978334537
11
-25
21
6.69872981078
0
ARC
5
53
100
AcDbEntity
8
0
6
ByLayer
62
256
370
-1
100
AcDbCircle
10
-47
20
7.08978334537
40
22
100
AcDbArc
50
0
51
54.1001137537
0
LINE
5
54
100
AcDbEntity
8
0
6
ByLayer
62
256
370
-1
100
AcDbLine
10
-25
20
-7.08978334537
11
-25
21
-6.69872981078
0
ARC
5
55
100
AcDbEntity
8
0
6
ByLayer
62
256
370
-1
100
AcDbCircle
10
-47
20
-7.08978334537
40
22
100
AcDbArc
50
305.899886246
51
0
0
ARC
5
56
100
AcDbEntity
8
0
6
ByLayer
62
256
370
-1
100
AcDbCircle
10
-2.98080310435e-012
20
-54.5447753553
40
22
100
AcDbArc
50
54.1001137536
51
125.899886246
0
LINE
5
57
100
AcDbEntity
8
0
6
ByLayer
62
256
370
-1
100
AcDbLine
10
25
20
-7.08978334537
11
25
21
-6.69872981078
0
ARC
5
58
100
AcDbEntity
8
0
6
ByLayer
62
256
370
-1
100
AcDbCircle
10
47
20
-7.08978334537
40
22
100
AcDbArc
50
180
51
234.100113754
0
LINE
5
59
100
AcDbEntity
8
0
6
ByLayer
62
256
370
-1
100
AcDbLine
10
25
20
7.08978334537
11
25
21
6.69872981078
0
ARC
5
5A
100
AcDbEntity
8
0
6
ByLayer
62
256
370
-1
100
AcDbCircle
10
47
20
7.08978334537
40
22
100
AcDbArc
50
125.899886246
51
180
0
CIRCLE
5
5B
100
AcDbEntity
8
0
6
ByLayer
62
256
370
-1
100
AcDbCircle
10
15.25
20
15.25
40
1.6
0
CIRCLE
5
5C
100
AcDbEntity
8
0
6
ByLayer
62
256
370
-1
100
AcDbCircle
10
-15.25
20
15.25
40
1.6
0
CIRCLE
5
5D
100
AcDbEntity
8
0
6
ByLayer
62
256
370
-1
100
AcDbCircle
10
-15.25
20
-15.25
40
1.6
0
CIRCLE
5
5E
100
AcDbEntity
8
0
6
ByLayer
62
256
370
-1
100
AcDbCircle
10
15.25
20
-15.25
40
1.6
0
ARC
5
5F
100
AcDbEntity
8
0
6
ByLayer
62
256
370
-1
100
AcDbCircle
10
-54.0502131834
20
-52.9318531346
40
11
100
AcDbArc
50
125.899888946
51
305.899888946
0
ARC
5
60
100
AcDbEntity
8
0
6
ByLayer
62
256
370
-1
100
AcDbCircle
10
54.0502138711
20
-52.9318536326
40
11
100
AcDbArc
50
234.100114242
51
54.1001110537
0
ARC
5
61
100
AcDbEntity
8
0
6
ByLayer
62
256
370
-1
100
AcDbCircle
10
54.0502131834
20
52.9318531346
40
11
100
AcDbArc
50
305.899888946
51
125.899886246
0
ARC
5
62
100
AcDbEntity
8
0
6
ByLayer
62
256
370
-1
100
AcDbCircle
10
-54.0502133928
20
52.9318532862
40
11
100
AcDbArc
50
54.1001097004
51
234.100116454
0
CIRCLE
5
63
100
AcDbEntity
8
0
6
ByLayer
62
256
370
-1
100
AcDbCircle
10
-58.1548092626
20
-47.2615541102
40
1.1
0
CIRCLE
5
64
100
AcDbEntity
8
0
6
ByLayer
62
256
370
-1
100
AcDbCircle
10
-49.9456187836
20
-58.6021533748
40
1.1
0
CIRCLE
5
65
100
AcDbEntity
8
0
6
ByLayer
62
256
370
-1
100
AcDbCircle
10
49.9456192497
20
-58.6021533777
40
1.1
0
CIRCLE
5
66
100
AcDbEntity
8
0
6
ByLayer
62
256
370
-1
100
AcDbCircle
10
58.1548088427
20
-47.2615538063
40
1.1
0
CIRCLE
5
67
100
AcDbEntity
8
0
6
ByLayer
62
256
370
-1
100
AcDbCircle
10
49.9456197386
20
58.6021533808
40
1.1
0
CIRCLE
5
68
100
AcDbEntity
8
0
6
ByLayer
62
256
370
-1
100
AcDbCircle
10
58.1548089586
20
47.2615532048
40
1.1
0
CIRCLE
5
69
100
AcDbEntity
8
0
6
ByLayer
62
256
370
-1
100
AcDbCircle
10
-49.9456183637
20
58.6021530709
40
1.1
0
CIRCLE
5
6A
100
AcDbEntity
8
0
6
ByLayer
62
256
370
-1
100
AcDbCircle
10
-58.1548093941
20
47.2615545018
40
1.1
0
ARC
5
6B
100
AcDbEntity
8
0
6
ByLayer
62
256
370
-1
100
AcDbCircle
10
-41.3788157292
20
42.5248267878
40
10
100
AcDbArc
50
234.100113754
51
267.657423516
0
ARC
5
6C
100
AcDbEntity
8
0
6
ByLayer
62
256
370
-1
100
AcDbCircle
10
-30.6323835411
20
34.7457397446
40
10
100
AcDbArc
50
200.542803992
51
234.100113754
0
ARC
5
6D
100
AcDbEntity
8
0
6
ByLayer
62
256
370
-1
100
AcDbCircle
10
-40.2060742322
20
44.144912397
40
10
100
AcDbArc
50
20.5428039918
51
54.1001137537
0
ARC
5
6E
100
AcDbEntity
8
0
6
ByLayer
62
256
370
-1
100
AcDbCircle
10
29.4596418347
20
36.3658252022
40
10
100
AcDbArc
50
92.3425764844
51
125.899886246
0
ARC
5
6F
100
AcDbEntity
8
0
6
ByLayer
62
256
370
-1
100
AcDbCircle
10
40.2060740228
20
44.1449122455
40
10
100
AcDbArc
50
125.899886246
51
159.457196008
0
ARC
5
70
100
AcDbEntity
8
0
6
ByLayer
62
256
370
-1
100
AcDbCircle
10
30.6323833317
20
34.745739593
40
10
100
AcDbArc
50
305.899886246
51
339.457196008
0
ARC
5
71
100
AcDbEntity
8
0
6
ByLayer
62
256
370
-1
100
AcDbCircle
10
41.3788155198
20
42.5248266362
40
10
100
AcDbArc
50
272.342576484
51
305.899886246
0
ARC
5
72
100
AcDbEntity
8
0
6
ByLayer
62
256
370
-1
100
AcDbCircle
10
41.3788162076
20
-42.5248271341
40
10
100
AcDbArc
50
54.1001137537
51
87.6574235156
0
ARC
5
73
100
AcDbEntity
8
0
6
ByLayer
62
256
370
-1
100
AcDbCircle
10
30.6323840195
20
-34.7457400908
40
10
100
AcDbArc
50
20.5428039918
51
54.1001137537
0
ARC
5
74
100
AcDbEntity
8
0
6
ByLayer
62
256
370
-1
100
AcDbCircle
10
40.2060747106
20
-44.1449127433
40
10
100
AcDbArc
50
200.542803992
51
234.100113754
0
ARC
5
75
100
AcDbEntity
8
0
6
ByLayer
62
256
370
-1
100
AcDbCircle
10
29.4596425225
20
-36.3658257001
40
10
100
AcDbArc
50
234.100113754
51
267.657423515
0
ARC
5
76
100
AcDbEntity
8
0
6
ByLayer
62
256
370
-1
100
AcDbCircle
10
-40.2060740228
20
-44.1449122455
40
10
100
AcDbArc
50
305.899886246
51
339.457196008
0
ARC
5
77
100
AcDbEntity
8
0
6
ByLayer
62
256
370
-1
100
AcDbCircle
10
-29.4596418347
20
-36.3658252022
40
10
100
AcDbArc
50
272.342576484
51
305.899886246
0
ARC
5
78
100
AcDbEntity
8
0
6
ByLayer
62
256
370
-1
100
AcDbCircle
10
-41.3788155198
20
-42.5248266362
40
10
100
AcDbArc
50
92.3425764844
51
125.899886246
0
ARC
5
79
100
AcDbEntity
8
0
6
ByLayer
62
256
370
-1
100
AcDbCircle
10
-30.6323833317
20
-34.745739593
40
10
100
AcDbArc
50
125.899886246
51
159.457196008
0
ARC
5
7A
100
AcDbEntity
8
0
6
ByLayer
62
256
370
-1
100
AcDbCircle
10
-41.8693069107
20
-30.5348550684
40
2
100
AcDbArc
50
272.343870497
51
339.45718118
0
ARC
5
7B
100
AcDbEntity
8
0
6
ByLayer
62
256
370
-1
100
AcDbCircle
10
-28.9691504438
20
-48.35579677
40
2
100
AcDbArc
50
92.3440088035
51
159.457154008
0
ARC
5
7C
100
AcDbEntity
8
0
6
ByLayer
62
256
370
-1
100
AcDbCircle
10
-29.4596420441
20
36.3658253538
40
10
100
AcDbArc
50
54.1001137537
51
87.6574235156
0
ARC
5
7D
100
AcDbEntity
8
0
6
ByLayer
62
256
370
-1
100
AcDbCircle
10
-41.8693071201
20
30.53485522
40
2
100
AcDbArc
50
20.5428336789
51
87.6568771927
0
ARC
5
7E
100
AcDbEntity
8
0
6
ByLayer
62
256
370
-1
100
AcDbCircle
10
-28.9691506532
20
48.3557969216
40
2
100
AcDbArc
50
200.542851058
51
267.656943373
0
ARC
5
7F
100
AcDbEntity
8
0
6
ByLayer
62
256
370
-1
100
AcDbCircle
10
28.9691504437
20
48.35579677
40
2
100
AcDbArc
50
272.343960867
51
339.457133747
0
ARC
5
80
100
AcDbEntity
8
0
6
ByLayer
62
256
370
-1
100
AcDbCircle
10
41.8693069107
20
30.5348550684
40
2
100
AcDbArc
50
92.3429668777
51
159.45718433
0
ARC
5
81
100
AcDbEntity
8
0
6
ByLayer
62
256
370
-1
100
AcDbCircle
10
41.8693075985
20
-30.5348555663
40
2
100
AcDbArc
50
200.542832563
51
267.656562733
0
ARC
5
82
100
AcDbEntity
8
0
6
ByLayer
62
256
370
-1
100
AcDbCircle
10
28.9691511316
20
-48.3557972679
40
2
100
AcDbArc
50
20.5428530571
51
87.6563770642
0
LINE
5
83
100
AcDbEntity
8
0
6
ByLayer
62
256
370
-1
100
AcDbLine
10
-60.5002912063
20
44.0213821315
11
-47.2425232142
21
34.4243987416
0
LINE
5
84
100
AcDbEntity
8
0
6
ByLayer
62
256
370
-1
100
AcDbLine
10
-47.600134529
20
61.8423236807
11
-34.3423667472
21
52.2453404432
0
LINE
5
85
100
AcDbEntity
8
0
6
ByLayer
62
256
370
-1
100
AcDbLine
10
-23.5959345591
20
44.4662534
11
-12.9001564668
21
36.7238336537
0
LINE
5
86
100
AcDbEntity
8
0
6
ByLayer
62
256
370
-1
100
AcDbLine
10
-36.4960910261
20
26.6453116984
11
-34.0998435331
21
24.9107250469
0
LINE
5
87
100
AcDbEntity
8
0
6
ByLayer
62
256
370
-1
100
AcDbLine
10
12.9001564668
20
36.7238336537
11
23.5959343497
21
44.4662532484
0
LINE
5
88
100
AcDbEntity
8
0
6
ByLayer
62
256
370
-1
100
AcDbLine
10
34.3423665378
20
52.2453402916
11
47.60013495
21
61.8423239854
0
LINE
5
89
100
AcDbEntity
8
0
6
ByLayer
62
256
370
-1
100
AcDbLine
10
60.5002918367
20
44.0213825878
11
47.2425230048
21
34.4243985901
0
LINE
5
8A
100
AcDbEntity
8
0
6
ByLayer
62
256
370
-1
100
AcDbLine
10
36.4960908167
20
26.6453115468
11
34.0998435332
21
24.9107250469
0
LINE
5
8B
100
AcDbEntity
8
0
6
ByLayer
62
256
370
-1
100
AcDbLine
10
34.0998435332
20
-24.9107250469
11
36.4960915045
21
-26.6453120447
0
LINE
5
8C
100
AcDbEntity
8
0
6
ByLayer
62
256
370
-1
100
AcDbLine
10
47.2425236926
20
-34.4243990879
11
60.5002925245
21
-44.0213830858
0
LINE
5
8D
100
AcDbEntity
8
0
6
ByLayer
62
256
370
-1
100
AcDbLine
10
-34.0998435332
20
-24.9107250469
11
-36.4960908167
21
-26.6453115468
0
LINE
5
8E
100
AcDbEntity
8
0
6
ByLayer
62
256
370
-1
100
AcDbLine
10
-47.2425230048
20
-34.4243985901
11
-60.5002918367
21
-44.0213825878
0
LINE
5
8F
100
AcDbEntity
8
0
6
ByLayer
62
256
370
-1
100
AcDbLine
10
-23.5959343497
20
-44.4662532484
11
-12.9001564668
21
-36.7238336537
0
LINE
5
90
100
AcDbEntity
8
0
6
ByLayer
62
256
370
-1
100
AcDbLine
10
-34.3423665378
20
-52.2453402916
11
-47.6001345301
21
-61.8423236814
0
LINE
5
91
100
AcDbEntity
8
0
6
ByLayer
62
256
370
-1
100
AcDbLine
10
12.900156467
20
-36.7238336538
11
23.5959350375
21
-44.4662537462
0
LINE
5
92
100
AcDbEntity
8
0
6
ByLayer
62
256
370
-1
100
AcDbLine
10
34.3423672256
20
-52.2453407895
11
47.6001357136
21
-61.8423245383
0
CIRCLE
5
93
100
AcDbEntity
8
0
6
ByLayer
62
256
370
-1
100
AcDbCircle
10
-54.0502131834
20
-52.9318531346
40
4.5
0
CIRCLE
5
94
100
AcDbEntity
8
0
6
ByLayer
62
256
370
-1
100
AcDbCircle
10
54.0502138711
20
-52.9318536326
40
4.5
0
CIRCLE
5
95
100
AcDbEntity
8
0
6
ByLayer
62
256
370
-1
100
AcDbCircle
10
54.0502131834
20
52.9318531346
40
4.5
0
CIRCLE
5
96
100
AcDbEntity
8
0
6
ByLayer
62
256
370
-1
100
AcDbCircle
10
-54.0502133928
20
52.9318532862
40
4.5
0
CIRCLE
5
97
100
AcDbEntity
8
0
6
ByLayer
62
256
370
-1
100
AcDbCircle
10
-7
20
23.25
40
1.6
0
CIRCLE
5
98
100
AcDbEntity
8
0
6
ByLayer
62
256
370
-1
100
AcDbCircle
10
7
20
23.25
40
1.6
0
CIRCLE
5
99
100
AcDbEntity
8
0
6
ByLayer
62
256
370
-1
100
AcDbCircle
10
7
20
-23.25
40
1.6
0
CIRCLE
5
9A
100
AcDbEntity
8
0
6
ByLayer
62
256
370
-1
100
AcDbCircle
10
-7
20
-23.25
40
1.6
0
ARC
5
9B
100
AcDbEntity
8
0
6
ByLayer
62
256
370
-1
100
AcDbCircle
10
12.6491106407
20
-3
40
2
100
AcDbArc
50
346.657636203
51
90
0
ARC
5
9C
100
AcDbEntity
8
0
6
ByLayer
62
256
370
-1
100
AcDbCircle
10
3
20
-3
40
2
100
AcDbArc
50
90
51
180
0
ARC
5
9D
100
AcDbEntity
8
0
6
ByLayer
62
256
370
-1
100
AcDbCircle
10
3
20
3
40
2
100
AcDbArc
50
180
51
270
0
ARC
5
9E
100
AcDbEntity
8
0
6
ByLayer
62
256
370
-1
100
AcDbCircle
10
-3
20
3
40
2
100
AcDbArc
50
270
51
0
0
ARC
5
9F
100
AcDbEntity
8
0
6
ByLayer
62
256
370
-1
100
AcDbCircle
10
-3
20
-3
40
2
100
AcDbArc
50
0
51
90
0
LINE
5
A0
100
AcDbEntity
8
0
6
ByLayer
62
256
370
-1
100
AcDbLine
10
-1
20
12.6491106407
11
-1
21
3
0
LINE
5
A1
100
AcDbEntity
8
0
6
ByLayer
62
256
370
-1
100
AcDbLine
10
1
20
3
11
1
21
12.6491106407
0
LINE
5
A2
100
AcDbEntity
8
0
6
ByLayer
62
256
370
-1
100
AcDbLine
10
3
20
1
11
12.6491106407
21
1
0
LINE
5
A3
100
AcDbEntity
8
0
6
ByLayer
62
256
370
-1
100
AcDbLine
10
3
20
-1
11
12.6491106407
21
-1
0
LINE
5
A4
100
AcDbEntity
8
0
6
ByLayer
62
256
370
-1
100
AcDbLine
10
-12.6491106407
20
1
11
-3
21
1
0
LINE
5
A5
100
AcDbEntity
8
0
6
ByLayer
62
256
370
-1
100
AcDbLine
10
-3
20
-1
11
-12.6491106407
21
-1
0
LINE
5
A6
100
AcDbEntity
8
0
6
ByLayer
62
256
370
-1
100
AcDbLine
10
-1
20
-3
11
-1
21
-12.6491106407
0
LINE
5
A7
100
AcDbEntity
8
0
6
ByLayer
62
256
370
-1
100
AcDbLine
10
1
20
-3
11
1
21
-12.6491106407
0
ARC
5
A8
100
AcDbEntity
8
0
6
ByLayer
62
256
370
-1
100
AcDbCircle
10
-2.9933639397
20
13.6490886218
40
1
100
AcDbArc
50
89.6197789614
51
135
0
ARC
5
A9
100
AcDbEntity
8
0
6
ByLayer
62
256
370
-1
100
AcDbCircle
10
2.9933639397
20
13.6490886218
40
1
100
AcDbArc
50
45
51
90.3802210386
0
ARC
5
AA
100
AcDbEntity
8
0
6
ByLayer
62
256
370
-1
100
AcDbCircle
10
13.6490886218
20
2.9933639397
40
1
100
AcDbArc
50
359.619778961
51
45
0
ARC
5
AB
100
AcDbEntity
8
0
6
ByLayer
62
256
370
-1
100
AcDbCircle
10
-13.6490886218
20
2.9933639397
40
1
100
AcDbArc
50
135
51
180.380221039
0
ARC
5
AC
100
AcDbEntity
8
0
6
ByLayer
62
256
370
-1
100
AcDbCircle
10
13.6490886218
20
-2.9933639397
40
1
100
AcDbArc
50
315
51
0.380221038586
0
ARC
5
AD
100
AcDbEntity
8
0
6
ByLayer
62
256
370
-1
100
AcDbCircle
10
2.9933639397
20
-13.6490886218
40
1
100
AcDbArc
50
269.619778961
51
315
0
ARC
5
AE
100
AcDbEntity
8
0
6
ByLayer
62
256
370
-1
100
AcDbCircle
10
-2.9933639397
20
-13.6490886218
40
1
100
AcDbArc
50
225
51
270.380221039
0
ARC
5
AF
100
AcDbEntity
8
0
6
ByLayer
62
256
370
-1
100
AcDbCircle
10
-13.6490886218
20
-2.9933639397
40
1
100
AcDbArc
50
179.619778961
51
225
0
ARC
5
B0
100
AcDbEntity
8
0
6
ByLayer
62
256
370
-1
100
AcDbCircle
10
-12.6491106407
20
3
40
2
100
AcDbArc
50
180.380252614
51
270
0
LINE
5
B1
100
AcDbEntity
8
0
6
ByLayer
62
256
370
-1
100
AcDbLine
10
-14.3561951716
20
3.70047095221
11
-3.70047078794
21
14.3561953359
0
ARC
5
B2
100
AcDbEntity
8
0
6
ByLayer
62
256
370
-1
100
AcDbCircle
10
-3
20
12.6491106407
40
2
100
AcDbArc
50
5.08888749034e-014
51
89.6112525662
0
ARC
5
B3
100
AcDbEntity
8
0
6
ByLayer
62
256
370
-1
100
AcDbCircle
10
3
20
12.6491106407
40
2
100
AcDbArc
50
90.3890951496
51
180
0
LINE
5
B4
100
AcDbEntity
8
0
6
ByLayer
62
256
370
-1
100
AcDbLine
10
3.70047085536
20
14.3561952685
11
14.3561953515
21
3.70047077239
0
ARC
5
B5
100
AcDbEntity
8
0
6
ByLayer
62
256
370
-1
100
AcDbCircle
10
12.6491106407
20
3
40
2
100
AcDbArc
50
270
51
359.619747664
0
ARC
5
B6
100
AcDbEntity
8
0
6
ByLayer
62
256
370
-1
100
AcDbCircle
10
3
20
-12.6491106407
40
2
100
AcDbArc
50
180
51
269.613766873
0
LINE
5
B7
100
AcDbEntity
8
0
6
ByLayer
62
256
370
-1
100
AcDbLine
10
3.70047078821
20
-14.3561953356
11
14.5951276623
21
-3.46153846154
0
ARC
5
B8
100
AcDbEntity
8
0
6
ByLayer
62
256
370
-1
100
AcDbCircle
10
-3
20
-12.6491106407
40
2
100
AcDbArc
50
270.38909515
51
0
0
LINE
5
B9
100
AcDbEntity
8
0
6
ByLayer
62
256
370
-1
100
AcDbLine
10
-3.70047090232
20
-14.3561952215
11
-14.3561953778
21
-3.70047074605
0
ARC
5
BA
100
AcDbEntity
8
0
6
ByLayer
62
256
370
-1
100
AcDbCircle
10
-12.6491106407
20
-3
40
2
100
AcDbArc
50
90
51
179.619747664
0
ENDSEC
0
SECTION
2
OBJECTS
0
DICTIONARY
5
C
330
0
100
AcDbDictionary
281
1
3
ACAD_GROUP
350
D
0
DICTIONARY
5
D
330
C
100
AcDbDictionary
281
1
0
ENDSEC
0
EOF
