999
dxfrw 0.5.4
0
SECTION
2
HEADER
9
$ACADVER
1
AC1009
9
$DWGCODEPAGE
3
ANSI_1252
9
$INSBASE
10
0
20
0
30
0
9
$EXTMIN
10
1e+020
20
1e+020
30
1e+020
9
$EXTMAX
10
-1e+020
20
-1e+020
30
-1e+020
9
$LIMMIN
10
0
20
0
9
$LIMMAX
10
420
20
297
9
$ORTHOMODE
70
0
9
$LTSCALE
40
1
9
$TEXTSTYLE
7
STANDARD
9
$DIMASZ
40
2.5
9
$DIMEXO
40
0.625
9
$DIMEXE
40
1.25
9
$DIMTXT
40
2.5
9
$DIMTSZ
40
0
9
$DIMSTYLE
2
STANDARD
9
$DIMGAP
40
0.625
9
$DIMTIH
70
0
9
$LUNITS
70
2
9
$LUPREC
70
4
9
$AUNITS
70
0
9
$AUPREC
70
2
9
$GRIDMODE
70
1
9
$SNAPSTYLE
70
0
9
$PLIMMIN
10
0
20
0
9
$PLIMMAX
10
210
20
297
0
ENDSEC
0
SECTION
2
CLASSES
0
ENDSEC
0
SECTION
2
TABLES
0
TABLE
2
VPORT
70
1
0
VPORT
2
*ACTIVE
70
0
10
0
20
0
11
1
21
1
12
48.0892125134
22
35.9886731391
13
0
23
0
14
10
24
10
15
10
25
10
16
0
26
0
36
1
17
0
27
0
37
0
40
140.616612729
41
1.37537091988
42
50
43
0
44
0
50
0
51
0
71
0
72
100
73
1
74
3
75
0
76
1
77
0
78
0
0
ENDTAB
0
TABLE
2
LTYPE
70
4
0
LTYPE
2
BYBLOCK
70
0
3

72
65
73
0
40
0
0
LTYPE
2
BYLAYER
70
0
3

72
65
73
0
40
0
0
LTYPE
2
CONTINUOUS
70
0
3
Solid line
72
65
73
0
40
0
0
LTYPE
2
DOT
70
0
3
Dot . . . . . . . . . . . . . . . . . . . . . .
72
65
73
2
40
6.35
49
0
49
-6.35
0
LTYPE
2
DOT2
70
0
3
Dot (.5x) .....................................
72
65
73
2
40
3.175
49
0
49
-3.175
0
LTYPE
2
DOTX2
70
0
3
Dot (2x) .  .  .  .  .  .  .  .  .  .  .  .  .
72
65
73
2
40
12.7
49
0
49
-12.7
0
LTYPE
2
DASHED
70
0
3
Dot . . . . . . . . . . . . . . . . . . . . . .
72
65
73
2
40
19.05
49
12.7
49
-6.35
0
LTYPE
2
DASHED2
70
0
3
Dashed (.5x) _ _ _ _ _ _ _ _ _ _ _ _ _ _ _ _ _
72
65
73
2
40
9.525
49
6.35
49
-3.175
0
LTYPE
2
DASHEDX2
70
0
3
Dashed (2x) ____  ____  ____  ____  ____  ___
72
65
73
2
40
38.1
49
25.4
49
-12.7
0
LTYPE
2
DASHDOT
70
0
3
Dash dot __ . __ . __ . __ . __ . __ . __ . __
72
65
73
4
40
25.4
49
12.7
49
-6.35
49
0
49
-6.35
0
LTYPE
2
DASHDOT2
70
0
3
Dash dot (.5x) _._._._._._._._._._._._._._._.
72
65
73
4
40
12.7
49
6.35
49
-3.175
49
0
49
-3.175
0
LTYPE
2
DASHDOTX2
70
0
3
Dash dot (2x) ____  .  ____  .  ____  .  ___
72
65
73
4
40
50.8
49
25.4
49
-12.7
49
0
49
-12.7
0
LTYPE
2
DIVIDE
70
0
3
Divide ____ . . ____ . . ____ . . ____ . . ____
72
65
73
6
40
31.75
49
12.7
49
-6.35
49
0
49
-6.35
49
0
49
-6.35
0
LTYPE
2
DIVIDE2
70
0
3
Divide (.5x) __..__..__..__..__..__..__..__.._
72
65
73
6
40
15.875
49
6.35
49
-3.175
49
0
49
-3.175
49
0
49
-3.175
0
LTYPE
2
DIVIDEX2
70
0
3
Divide (2x) ________  .  .  ________  .  .  _
72
65
73
6
40
63.5
49
25.4
49
-12.7
49
0
49
-12.7
49
0
49
-12.7
0
LTYPE
2
BORDER
70
0
3
Border __ __ . __ __ . __ __ . __ __ . __ __ .
72
65
73
6
40
44.45
49
12.7
49
-6.35
49
12.7
49
-6.35
49
0
49
-6.35
0
LTYPE
2
BORDER2
70
0
3
Border (.5x) __.__.__.__.__.__.__.__.__.__.__.
72
65
73
6
40
22.225
49
6.35
49
-3.175
49
6.35
49
-3.175
49
0
49
-3.175
0
LTYPE
2
BORDERX2
70
0
3
Border (2x) ____  ____  .  ____  ____  .  ___
72
65
73
6
40
88.9
49
25.4
49
-12.7
49
25.4
49
-12.7
49
0
49
-12.7
0
LTYPE
2
CENTER
70
0
3
Center ____ _ ____ _ ____ _ ____ _ ____ _ ____
72
65
73
4
40
50.8
49
31.75
49
-6.35
49
6.35
49
-6.35
0
LTYPE
2
CENTER2
70
0
3
Center (.5x) ___ _ ___ _ ___ _ ___ _ ___ _ ___
72
65
73
4
40
28.575
49
19.05
49
-3.175
49
3.175
49
-3.175
0
LTYPE
2
CENTERX2
70
0
3
Center (2x) ________  __  ________  __  _____
72
65
73
4
40
101.6
49
63.5
49
-12.7
49
12.7
49
-12.7
0
ENDTAB
0
TABLE
2
LAYER
70
1
0
LAYER
2
0
70
0
62
7
6
CONTINUOUS
0
ENDTAB
0
TABLE
2
STYLE
70
3
0
STYLE
2
STANDARD
70
0
40
0
41
1
50
0
71
0
42
1
3
TXT
4

0
ENDTAB
0
TABLE
2
VIEW
70
0
0
ENDTAB
0
TABLE
2
UCS
70
0
0
ENDTAB
0
TABLE
2
APPID
70
1
0
APPID
2
ACAD
70
0
0
ENDTAB
0
TABLE
2
DIMSTYLE
70
1
0
DIMSTYLE
2
STANDARD
70
0
3

4

5

6

7

40
1
41
2.5
42
0.625
43
0.38
44
1.25
45
0
46
0
47
0
48
0
140
2.5
141
0.09
142
0
143
25.4
144
1
145
0
146
1
147
0.625
71
0
72
0
73
0
74
1
75
0
76
0
77
0
78
0
170
0
171
2
172
0
173
0
174
0
175
0
176
0
177
0
178
0
0
ENDTAB
0
ENDSEC
0
SECTION
2
BLOCKS
0
BLOCK
8
0
2
*MODEL_SPACE
70
0
10
0
20
0
30
0
3
*MODEL_SPACE
1

0
ENDBLK
8
0
0
BLOCK
8
0
2
*PAPER_SPACE
70
0
10
0
20
0
30
0
3
*PAPER_SPACE
1

0
ENDBLK
8
0
0
ENDSEC
0
SECTION
2
ENTITIES
0
LINE
5
31
8
0
6
BYLAYER
62
256
10
-43.5499217665
20
58.9104708508
11
-43.5499211362
21
58.9104703945
0
ARC
5
32
8
0
6
BYLAYER
62
256
10
-50
20
50
40
11
50
54.1001097004
51
234.100116454
0
LINE
5
33
8
0
6
BYLAYER
62
256
10
-56.4500782335
20
-41.0895291492
11
-56.4500778136
21
-41.0895288453
0
ARC
5
34
8
0
6
BYLAYER
62
256
10
50
20
-50
40
11
50
234.100114242
51
54.1001110537
0
ARC
5
35
8
0
6
BYLAYER
62
256
10
-50
20
-50
40
11
50
125.899888946
51
305.899888946
0
ARC
5
36
8
0
6
BYLAYER
62
256
10
50
20
50
40
11
50
305.899888946
51
125.899886246
0
ARC
5
37
8
0
6
BYLAYER
62
256
10
27.5
20
6.69872981078
40
2.5
50
180
51
0
0
ARC
5
38
8
0
6
BYLAYER
62
256
10
27.5
20
-6.69872981078
40
2.5
50
0
51
180
0
ARC
5
39
8
0
6
BYLAYER
62
256
10
32.5
20
6.69872981078
40
2.5
50
0
51
180
0
ARC
5
3A
8
0
6
BYLAYER
62
256
10
32.5
20
-6.69872981078
40
2.5
50
180
51
0
0
LINE
5
3B
8
0
6
BYLAYER
62
256
10
35
20
6.69872981078
11
35
21
-6.69872981078
0
ARC
5
3C
8
0
6
BYLAYER
62
256
10
-27.5
20
6.69872981078
40
2.5
50
180
51
0
0
ARC
5
3D
8
0
6
BYLAYER
62
256
10
-32.5
20
6.69872972026
40
2.5
50
2.07446790713e-006
51
179.999997926
0
ARC
5
3E
8
0
6
BYLAYER
62
256
10
-27.5
20
-6.69872981078
40
2.5
50
0
51
180
0
ARC
5
3F
8
0
6
BYLAYER
62
256
10
-32.5
20
-6.69872981078
40
2.5
50
180
51
360
0
LINE
5
40
8
0
6
BYLAYER
62
256
10
-35
20
6.69872981078
11
-35
21
-6.69872981078
0
CIRCLE
5
41
8
0
6
BYLAYER
62
256
10
21.2132034356
20
0
40
1.5
0
CIRCLE
5
42
8
0
6
BYLAYER
62
256
10
-21.2132034356
20
0
40
1.5
0
CIRCLE
5
43
8
0
6
BYLAYER
62
256
10
-1.7763568394e-015
20
-21.2132034356
40
1.5
0
CIRCLE
5
44
8
0
6
BYLAYER
62
256
10
1.7763568394e-015
20
21.2132034356
40
1.5
0
CIRCLE
5
45
8
0
6
BYLAYER
62
256
10
54.1045949322
20
-44.3297001453
40
1.1
0
CIRCLE
5
46
8
0
6
BYLAYER
62
256
10
45.8954050678
20
-55.6702998547
40
1.1
0
CIRCLE
5
47
8
0
6
BYLAYER
62
256
10
45.89540539
20
55.670300088
40
1.1
0
CIRCLE
5
48
8
0
6
BYLAYER
62
256
10
54.10459461
20
44.329699912
40
1.1
0
CIRCLE
5
49
8
0
6
BYLAYER
62
256
10
-45.8954044882
20
55.6702994352
40
1.1
0
CIRCLE
5
4A
8
0
6
BYLAYER
62
256
10
-54.1045955118
20
44.3297005648
40
1.1
0
CIRCLE
5
4B
8
0
6
BYLAYER
62
256
10
-54.1045948383
20
-44.3297000773
40
1.1
0
CIRCLE
5
4C
8
0
6
BYLAYER
62
256
10
-45.8954051617
20
-55.6702999227
40
1.1
0
LINE
5
4D
8
0
6
BYLAYER
62
256
10
-43.5499211362
20
58.9104703945
11
-12.9001564669
21
36.7238336538
0
LINE
5
4E
8
0
6
BYLAYER
62
256
10
43.5499217665
20
58.9104708508
11
12.9001564669
21
36.7238336538
0
ARC
5
4F
8
0
6
BYLAYER
62
256
10
-8.34643465453e-012
20
54.5447753553
40
22
50
234.100113754
51
305.899886246
0
LINE
5
50
8
0
6
BYLAYER
62
256
10
-56.4500778136
20
41.0895288453
11
-34.0998435331
21
24.9107250469
0
LINE
5
51
8
0
6
BYLAYER
62
256
10
-25
20
7.08978334537
11
-25
21
6.69872981078
0
ARC
5
52
8
0
6
BYLAYER
62
256
10
-47
20
7.08978334537
40
22
50
0
51
54.1001137537
0
LINE
5
53
8
0
6
BYLAYER
62
256
10
-25
20
-7.08978334537
11
-25
21
-6.69872981078
0
LINE
5
54
8
0
6
BYLAYER
62
256
10
-56.4500778136
20
-41.0895288453
11
-34.0998435331
21
-24.9107250469
0
ARC
5
55
8
0
6
BYLAYER
62
256
10
-47
20
-7.08978334537
40
22
50
305.899886246
51
0
0
LINE
5
56
8
0
6
BYLAYER
62
256
10
-43.5499217665
20
-58.9104708508
11
-12.900156467
21
-36.7238336538
0
LINE
5
57
8
0
6
BYLAYER
62
256
10
43.5499216905
20
-58.9104707958
11
12.900156467
21
-36.7238336538
0
ARC
5
58
8
0
6
BYLAYER
62
256
10
-2.98080310435e-012
20
-54.5447753553
40
22
50
54.1001137536
51
125.899886246
0
LINE
5
59
8
0
6
BYLAYER
62
256
10
56.4500778136
20
-41.0895288453
11
34.0998435331
21
-24.9107250469
0
LINE
5
5A
8
0
6
BYLAYER
62
256
10
25
20
-7.08978334537
11
25
21
-6.69872981078
0
ARC
5
5B
8
0
6
BYLAYER
62
256
10
47
20
-7.08978334537
40
22
50
180
51
234.100113754
0
LINE
5
5C
8
0
6
BYLAYER
62
256
10
25
20
7.08978334537
11
25
21
6.69872981078
0
LINE
5
5D
8
0
6
BYLAYER
62
256
10
56.4500778136
20
41.0895288453
11
34.0998435331
21
24.9107250469
0
ARC
5
5E
8
0
6
BYLAYER
62
256
10
47
20
7.08978334537
40
22
50
125.899886246
51
180
0
ENDSEC
0
EOF
